<svg width="169" height="19" viewBox="0 0 169 19" fill="none" xmlns="http://www.w3.org/2000/svg">
<path d="M6.08984 11.6484L4.40234 13.5V18H0.289062V0.9375H4.40234V8.46094L5.83203 6.29297L9.51172 0.9375H14.5977L8.83203 8.48438L14.5977 18H9.72266L6.08984 11.6484ZM21.8867 8.34375L25.0273 0.9375H29.4688L23.9727 11.8711V18H19.8008V11.8711L14.3164 0.9375H18.7344L21.8867 8.34375ZM37.0508 11.9766H34.8242V18H30.7109V0.9375H37.4258C39.4492 0.9375 41.0312 1.38672 42.1719 2.28516C43.3125 3.18359 43.8828 4.45312 43.8828 6.09375C43.8828 7.28125 43.6406 8.26562 43.1562 9.04688C42.6797 9.82812 41.9297 10.4609 40.9062 10.9453L44.4688 17.8242V18H40.0625L37.0508 11.9766ZM34.8242 8.80078H37.4258C38.207 8.80078 38.793 8.59766 39.1836 8.19141C39.582 7.77734 39.7812 7.20312 39.7812 6.46875C39.7812 5.73438 39.582 5.16016 39.1836 4.74609C38.7852 4.32422 38.1992 4.11328 37.4258 4.11328H34.8242V8.80078ZM60.3359 15.8906C59.7031 16.5938 58.7773 17.1602 57.5586 17.5898C56.3398 18.0195 55.0039 18.2344 53.5508 18.2344C51.3164 18.2344 49.5312 17.5508 48.1953 16.1836C46.8594 14.8164 46.1445 12.9141 46.0508 10.4766L46.0391 9C46.0391 7.32031 46.3359 5.85547 46.9297 4.60547C47.5234 3.34766 48.3711 2.38281 49.4727 1.71094C50.582 1.03125 51.8633 0.691406 53.3164 0.691406C55.4414 0.691406 57.0898 1.17969 58.2617 2.15625C59.4414 3.125 60.1289 4.57422 60.3242 6.50391H56.3633C56.2227 5.55078 55.918 4.87109 55.4492 4.46484C54.9805 4.05859 54.3164 3.85547 53.457 3.85547C52.4258 3.85547 51.6289 4.29297 51.0664 5.16797C50.5039 6.04297 50.2188 7.29297 50.2109 8.91797V9.94922C50.2109 11.6523 50.5 12.9336 51.0781 13.793C51.6641 14.6445 52.582 15.0703 53.832 15.0703C54.9023 15.0703 55.6992 14.832 56.2227 14.3555V11.707H53.3633V8.88281H60.3359V15.8906ZM68.9727 8.34375L72.1133 0.9375H76.5547L71.0586 11.8711V18H66.8867V11.8711L61.4023 0.9375H65.8203L68.9727 8.34375ZM82.4141 14.8359H90.5703V18H77.2812V15.832L85.4141 4.11328H77.2344V0.9375H90.4883V3.04688L82.4141 14.8359Z" fill="#FB9333"/>
<path d="M114.898 11.0273H108.148V18H104.633V0.9375H115.742V3.78516H108.148V8.19141H114.898V11.0273ZM124.098 11.7539H121.297V18H117.781V0.9375H124.121C126.137 0.9375 127.691 1.38672 128.785 2.28516C129.879 3.18359 130.426 4.45312 130.426 6.09375C130.426 7.25781 130.172 8.23047 129.664 9.01172C129.164 9.78516 128.402 10.4023 127.379 10.8633L131.07 17.8359V18H127.297L124.098 11.7539ZM121.297 8.90625H124.133C125.016 8.90625 125.699 8.68359 126.184 8.23828C126.668 7.78516 126.91 7.16406 126.91 6.375C126.91 5.57031 126.68 4.9375 126.219 4.47656C125.766 4.01562 125.066 3.78516 124.121 3.78516H121.297V8.90625ZM146.023 0.9375V12.1758C146.023 14.043 145.438 15.5195 144.266 16.6055C143.102 17.6914 141.508 18.2344 139.484 18.2344C137.492 18.2344 135.91 17.707 134.738 16.6523C133.566 15.5977 132.969 14.1484 132.945 12.3047V0.9375H136.461V12.1992C136.461 13.3164 136.727 14.1328 137.258 14.6484C137.797 15.1562 138.539 15.4102 139.484 15.4102C141.461 15.4102 142.465 14.3711 142.496 12.293V0.9375H146.023ZM152.645 18H149.129V0.9375H152.645V18ZM168.406 3.78516H163.18V18H159.664V3.78516H154.508V0.9375H168.406V3.78516Z" fill="#585858"/>
</svg>
